<?xml version="1.0" encoding="utf-8"?>
<?xml-stylesheet type="text/xsl" href="rss1.xsl"?>
<rss version="2.0" xmlns:atom="http://www.w3.org/2005/Atom" xmlns:content="http://purl.org/rss/1.0/modules/content/" xmlns:dc="http://purl.org/dc/elements/1.1/" xmlns:media="http://search.yahoo.com/mrss/">
<channel>
 <title>Getty</title>
 <link>http://www.gettyimg.com/</link>
 <atom:link href="http://www.gettyimg.com/" rel="self" type="application/rss+xml" />

 
                <item>
                <title><![CDATA[【HD Live Performances】FEED - Bebe Rexha - Call on Me - Macy's Fourth of July Fireworks Spectacular (2023) BACKHAUL 1080i FLAC5.1 H.264-TrollHD]]></title>
                <link><![CDATA[https://sharemania.us/threads/bebe-rexha-call-on-me-macys-fourth-of-july-fireworks-spectacular-2023-backhaul-1080i-flac5-1-h-264-trollhd.224415/]]></link>
                <description><![CDATA[<article>
<blockquote class="messageText SelectQuoteContainer ugc baseHtml">
<img src="https://images2.imgbox.com/f6/73/0ZmC4QZV_o.jpg" class="bbCodeImage LbImage" alt="[​IMG]" data-url="https://images2.imgbox.com/f6/73/0ZmC4QZV_o.jpg" style=""> <br>
<br>
<div class="bbCodeBlock bbCodeCode">
<div class="type">Code:</div>
<pre>General
Unique ID                      : 289949033936658625664202347825737093617 (0xDA2227161153E42B012156218421D1F1)
Format                         : Matroska
Format version                 : Version 4
File size                      : 605 MiB
Duration                       : 2 min 31 s
Overall bit rate mode          : Variable
Overall bit rate               : 33.5 Mb/s
Encoded date                   : UTC 2023-07-13 16:05:32
Writing application            : mkvmerge v30.0.0 ('Interstellar') 64-bit
Writing library                : libebml v1.3.6 + libmatroska v1.4.9

Video
ID                             : 1
Format                         : AVC
Format/Info                    : Advanced Video Codec
Format profile                 : High@L4.1
Format settings                : 3 Ref Frames
Format settings, CABAC         : No
Format settings, Reference fra : 3 frames
Codec ID                       : V_MPEG4/ISO/AVC
Duration                       : 2 min 31 s
Bit rate mode                  : Constant
Bit rate                       : 31.3 Mb/s
Width                          : 1 920 pixels
Height                         : 1 080 pixels
Display aspect ratio           : 16:9
Frame rate mode                : Variable
Frame rate                     : 59.940 FPS
Original frame rate            : 29.970 (30000/1001) FPS
Color space                    : YUV
Chroma subsampling             : 4:2:0
Bit depth                      : 8 bits
Scan type                      : Interlaced
Scan type, store method        : Separated fields
Scan order                     : Top Field First
Bits/(Pixel*Frame)             : 0.252
Stream size                    : 565 MiB (93%)
Default                        : Yes
Forced                         : No
Color range                    : Limited
Color primaries                : BT.709
Transfer characteristics       : BT.709
Matrix coefficients            : BT.709

Audio
ID                             : 2
Format                         : FLAC
Format/Info                    : Free Lossless Audio Codec
Codec ID                       : A_FLAC
Duration                       : 2 min 31 s
Bit rate mode                  : Variable
Bit rate                       : 2 198 kb/s
Channel(s)                     : 6 channels
Channel layout                 : L R C LFE Ls Rs
Sampling rate                  : 48.0 kHz
Frame rate                     : 11.719 FPS (4096 SPF)
Bit depth                      : 16 bits
Compression mode               : Lossless
Delay relative to video        : 147 ms
Stream size                    : 39.7 MiB (7%)
Writing library                : libFLAC 1.3.2 (UTC 2019-08-04)
Language                       : English
Default                        : Yes
Forced                         : No

</pre>
</div>
<div class="bbCodeBlock bbCodeVfcHH HiddenContent">
<div class="attribution type">Hidden Content:</div>
<blockquote>You must either reply or click 'Like' to see the hidden information contained here.</blockquote>
</div><span style="color: rgb(191, 191, 191)">Cutted with:</span><br>
<b>MKVToolNix GUI<br>
<br>
<img src="styles/default/xenforo/smilies/super_man-48.png" class="mceSmilie" alt=":super:" title="Super Man    :super:"><img src="styles/default/xenforo/smilies/super_man-48.png" class="mceSmilie" alt=":super:" title="Super Man    :super:"><img src="styles/default/xenforo/smilies/super_man-48.png" class="mceSmilie" alt=":super:" title="Super Man    :super:"></b>
<div class="messageTextEndMarker">&nbsp;</div>
</blockquote>
</article>]]></description>
                <author><![CDATA[Dream66]]></author>
                </item>

                
                <item>
                <title><![CDATA[【Requests】[REQ VID] - ZARA LARSSON - AmazeVR Concert]]></title>
                <link><![CDATA[https://sharemania.us/threads/zara-larsson-amazevr-concert.224413/]]></link>
                <description><![CDATA[<article>
<blockquote class="messageText SelectQuoteContainer ugc baseHtml">
<div data-s9e-mediaembed="youtube" style="display:inline-block;width:100%;max-width:640px"><div style="overflow:hidden;position:relative;padding-bottom:56.25%"><iframe allowfullscreen="" scrolling="no" style="background:url(https://i.ytimg.com/vi/MIZKqn5frLk/hqdefault.jpg) 50% 50% / cover;border:0;height:100%;left:0;position:absolute;width:100%" src="https://www.youtube.com/embed/MIZKqn5frLk"></iframe></div></div><br>
<br>
Hii,<br>
Looking for this new concert of the goddess ZARA LARRSON, Full Show please.<br>
If possible in VR and 2D, thank you very much.
<div class="messageTextEndMarker">&nbsp;</div>
</blockquote>
</article>]]></description>
                <author><![CDATA[bhammesj_m366f]]></author>
                </item>

                
                <item>
                <title><![CDATA[【HD Live Performances】FEED - LL Cool J, DJ Z-Trip &amp; The Roots - Macy's Fourth of July Fireworks Spectacular (2023) BACKHAUL 1080i FLAC5.1 H.264-TrollHD]]></title>
                <link><![CDATA[https://sharemania.us/threads/ll-cool-j-dj-z-trip-the-roots-macys-fourth-of-july-fireworks-spectacular-2023-backhaul-1080i-flac5-1-h-264-trollhd.224414/]]></link>
                <description><![CDATA[<article>
<blockquote class="messageText SelectQuoteContainer ugc baseHtml">
<img src="https://images2.imgbox.com/5e/39/Xjeqfmlb_o.jpg" class="bbCodeImage LbImage" alt="[​IMG]" data-url="https://images2.imgbox.com/5e/39/Xjeqfmlb_o.jpg" style=""> <br>
<br>
<div class="bbCodeBlock bbCodeCode">
<div class="type">Code:</div>
<pre>General
Unique ID                      : 242494443947959445150865473039710023281 (0xB66EBB29058AEDB1F82EB3A20E4FEE71)
Format                         : Matroska
Format version                 : Version 4
File size                      : 1.59 GiB
Duration                       : 6 min 50 s
Overall bit rate mode          : Variable
Overall bit rate               : 33.3 Mb/s
Encoded date                   : UTC 2023-07-13 16:14:46
Writing application            : mkvmerge v30.0.0 ('Interstellar') 64-bit
Writing library                : libebml v1.3.6 + libmatroska v1.4.9

Video
ID                             : 1
Format                         : AVC
Format/Info                    : Advanced Video Codec
Format profile                 : High@L4.1
Format settings                : 3 Ref Frames
Format settings, CABAC         : No
Format settings, Reference fra : 3 frames
Codec ID                       : V_MPEG4/ISO/AVC
Duration                       : 6 min 50 s
Bit rate mode                  : Constant
Bit rate                       : 31.3 Mb/s
Width                          : 1 920 pixels
Height                         : 1 080 pixels
Display aspect ratio           : 16:9
Frame rate mode                : Variable
Frame rate                     : 59.940 (60000/1001) FPS
Original frame rate            : 29.970 (30000/1001) FPS
Color space                    : YUV
Chroma subsampling             : 4:2:0
Bit depth                      : 8 bits
Scan type                      : Interlaced
Scan type, store method        : Separated fields
Scan order                     : Top Field First
Bits/(Pixel*Frame)             : 0.252
Stream size                    : 1.50 GiB (94%)
Default                        : Yes
Forced                         : No
Color range                    : Limited
Color primaries                : BT.709
Transfer characteristics       : BT.709
Matrix coefficients            : BT.709

Audio
ID                             : 2
Format                         : FLAC
Format/Info                    : Free Lossless Audio Codec
Codec ID                       : A_FLAC
Duration                       : 6 min 50 s
Bit rate mode                  : Variable
Bit rate                       : 2 012 kb/s
Channel(s)                     : 6 channels
Channel layout                 : L R C LFE Ls Rs
Sampling rate                  : 48.0 kHz
Frame rate                     : 11.719 FPS (4096 SPF)
Bit depth                      : 16 bits
Compression mode               : Lossless
Delay relative to video        : 114 ms
Stream size                    : 98.5 MiB (6%)
Writing library                : libFLAC 1.3.2 (UTC 2019-08-04)
Language                       : English
Default                        : Yes
Forced                         : No

</pre>
</div>
<div class="bbCodeBlock bbCodeVfcHH HiddenContent">
<div class="attribution type">Hidden Content:</div>
<blockquote>You must either reply or click 'Like' to see the hidden information contained here.</blockquote>
</div><span style="color: rgb(191, 191, 191)">Cutted with:</span><br>
<b>MKVToolNix GUI<br>
<br>
<img src="styles/default/xenforo/smilies/super_man-48.png" class="mceSmilie" alt=":super:" title="Super Man    :super:"><img src="styles/default/xenforo/smilies/super_man-48.png" class="mceSmilie" alt=":super:" title="Super Man    :super:"><img src="styles/default/xenforo/smilies/super_man-48.png" class="mceSmilie" alt=":super:" title="Super Man    :super:"></b>
<div class="messageTextEndMarker">&nbsp;</div>
</blockquote>
</article>]]></description>
                <author><![CDATA[Dream66]]></author>
                </item>

                
                <item>
                <title><![CDATA[【Requests】[REQ AUD] - Backstreet Boys - x3 Rare Remixes (FLAC, MP3 OR WAV)]]></title>
                <link><![CDATA[https://sharemania.us/threads/backstreet-boys-x3-rare-remixes-flac-mp3-or-wav.224406/]]></link>
                <description><![CDATA[<article>
<blockquote class="messageText SelectQuoteContainer ugc baseHtml">
Looking for these 3 rare remixes <br>
04 Everybody (Backstreet's Back) (Sharp London Vocal Remix) (Edit) 04:48<br>
08 Quit Playing Games (With My Heart) (Jazzy Jim's Radio Edit) 03:03<br>
09 The Call (Marcus DL Remix) 03:23<br>
<br>
Founded on the release below<br>
<img src="https://i.discogs.com/WN2GUDRhsbLOQlYaRhL0C1WhXkJylDMzNLAzAAxK1Uo/rs:fit/g:sm/q:90/h:600/w:593/czM6Ly9kaXNjb2dz/LWRhdGFiYXNlLWlt/YWdlcy9SLTcwMjUy/NjgtMTQzMTk2OTEy/Ni02NTk0LmpwZWc.jpeg" class="bbCodeImage LbImage" alt="[​IMG]" data-url="https://i.discogs.com/WN2GUDRhsbLOQlYaRhL0C1WhXkJylDMzNLAzAAxK1Uo/rs:fit/g:sm/q:90/h:600/w:593/czM6Ly9kaXNjb2dz/LWRhdGFiYXNlLWlt/YWdlcy9SLTcwMjUy/NjgtMTQzMTk2OTEy/Ni02NTk0LmpwZWc.jpeg" style=""><br>
<br>
<a href="https://www.discogs.com/release/7025268-Backstreet-Boys-The-Hit-Remixes-Chapter-One" target="_blank" class="externalLink" rel="nofollow">https://www.discogs.com/release/7025268-Backstreet-Boys-The-Hit-Remixes-Chapter-One</a>
<div class="messageTextEndMarker">&nbsp;</div>
</blockquote>
</article>]]></description>
                <author><![CDATA[Robert Forever]]></author>
                </item>

                </channel></rss>